<svg xmlns="http://www.w3.org/2000/svg" width="154pt" height="32pt" viewBox="0 0 154 32"
  preserveAspectRatio="xMidYMid meet">

  <g transform="translate(0,32) scale(0.1,-0.1)" fill="#000000" stroke="none">
    <path d="M10 160 c0 -152 1 -160 20 -160 18 0 20 8 22 107 l3 108 15 -105 c13
-93 17 -105 36 -108 19 -3 22 5 36 95 l15 98 2 -97 c1 -97 1 -98 26 -98 l25 0
0 160 0 160 -34 0 c-38 0 -39 -2 -52 -115 -12 -106 -20 -104 -33 8 l-13 107
-34 0 -34 0 0 -160z" />
    <path d="M252 168 c-12 -84 -22 -156 -22 -160 0 -5 9 -8 19 -8 13 0 21 9 26
31 6 25 11 30 33 27 21 -2 28 -9 30 -30 3 -22 9 -28 28 -28 13 0 24 2 24 5 0
8 -40 257 -46 288 -5 23 -11 27 -38 27 l-31 0 -23 -152z m70 -23 c2 -31 -1
-40 -14 -43 -20 -4 -23 21 -11 104 l7 49 7 -35 c4 -19 9 -53 11 -75z" />
    <path d="M412 308 c3 -7 15 -42 27 -78 l21 -66 -25 -74 c-30 -90 -31 -92 -3
-88 17 2 26 14 36 51 7 26 17 45 21 42 5 -2 14 -25 20 -50 10 -39 15 -45 37
-45 17 0 24 5 22 13 -3 6 -15 42 -27 80 l-23 67 23 68 c12 37 24 73 27 80 2 7
-5 12 -21 12 -22 0 -27 -6 -37 -51 -14 -56 -21 -55 -39 9 -10 35 -16 42 -37
42 -17 0 -24 -5 -22 -12z" />
    <path d="M600 160 l0 -160 25 0 25 0 0 160 0 160 -25 0 -25 0 0 -160z" />
    <path d="M680 160 l0 -160 25 0 25 0 0 160 0 160 -25 0 -25 0 0 -160z" />
    <path d="M770 160 l0 -160 25 0 25 0 0 160 0 160 -25 0 -25 0 0 -160z" />
    <path d="M850 160 c0 -152 1 -160 20 -160 18 0 20 8 22 107 l3 108 15 -105
c13 -93 17 -105 36 -108 19 -3 22 5 36 95 l15 98 2 -97 c1 -97 1 -98 26 -98
l25 0 0 160 0 160 -34 0 c-38 0 -39 -2 -52 -115 -12 -106 -20 -104 -33 8 l-13
107 -34 0 -34 0 0 -160z" />
    <path d="M1102 168 c-12 -84 -22 -156 -22 -160 0 -5 9 -8 19 -8 13 0 21 9 26
31 6 25 11 30 33 27 21 -2 28 -9 30 -30 3 -22 9 -28 28 -28 13 0 24 2 24 5 0
8 -40 257 -46 288 -5 23 -11 27 -38 27 l-31 0 -23 -152z m70 -23 c2 -31 -1
-40 -14 -43 -20 -4 -23 21 -11 104 l7 49 7 -35 c4 -19 9 -53 11 -75z" />
    <path d="M1260 160 l0 -160 65 0 c58 0 65 2 65 20 0 17 -7 20 -40 20 l-40 0 0
140 0 140 -25 0 -25 0 0 -160z" />
    <path d="M1449 313 c-19 -5 -39 -45 -39 -79 0 -14 16 -42 39 -67 53 -58 64
-82 51 -107 -14 -27 -28 -25 -42 5 -15 34 -48 34 -48 0 0 -51 61 -81 111 -55
15 9 19 22 19 67 0 51 -3 59 -40 99 -41 44 -52 87 -26 97 16 6 36 -11 36 -30
0 -7 7 -13 15 -13 10 0 15 11 15 35 0 46 -33 64 -91 48z" />
  </g>
</svg>